<svg class="rich-terminal" viewBox="0 0 1092 879.5999999999999" xmlns="http://www.w3.org/2000/svg">
    <!-- Generated with Rich https://www.textualize.io -->
    <style>

    @font-face {
        font-family: "Fira Code";
        src: local("FiraCode-Regular"),
                url("https://cdnjs.cloudflare.com/ajax/libs/firacode/6.2.0/woff2/FiraCode-Regular.woff2") format("woff2"),
                url("https://cdnjs.cloudflare.com/ajax/libs/firacode/6.2.0/woff/FiraCode-Regular.woff") format("woff");
        font-style: normal;
        font-weight: 400;
    }
    @font-face {
        font-family: "Fira Code";
        src: local("FiraCode-Bold"),
                url("https://cdnjs.cloudflare.com/ajax/libs/firacode/6.2.0/woff2/FiraCode-Bold.woff2") format("woff2"),
                url("https://cdnjs.cloudflare.com/ajax/libs/firacode/6.2.0/woff/FiraCode-Bold.woff") format("woff");
        font-style: bold;
        font-weight: 700;
    }

    .terminal-matrix {
        font-family: Fira Code, monospace;
        font-size: 20px;
        line-height: 24.4px;
        font-variant-east-asian: full-width;
    }

    .terminal-title {
        font-size: 18px;
        font-weight: bold;
        font-family: arial;
    }

    .terminal-r1 { fill: #c5c8c6 }
.terminal-r2 { fill: #e0e0e0 }
.terminal-r3 { fill: #a3a3a3 }
.terminal-r4 { fill: #ffffff }
.terminal-r5 { fill: #121212 }
.terminal-r6 { fill: #191919 }
.terminal-r7 { fill: #737373 }
.terminal-r8 { fill: #656565 }
.terminal-r9 { fill: #2d2d2d }
.terminal-r10 { fill: #b0b0b0;font-weight: bold }
.terminal-r11 { fill: #515151 }
    </style>

    <defs>
    <clipPath id="terminal-clip-terminal">
      <rect x="0" y="0" width="1072.6" height="828.5999999999999" />
    </clipPath>
    <clipPath id="terminal-line-0">
    <rect x="0" y="1.5" width="1073.6" height="24.65"/>
            </clipPath>
<clipPath id="terminal-line-1">
    <rect x="0" y="25.9" width="1073.6" height="24.65"/>
            </clipPath>
<clipPath id="terminal-line-2">
    <rect x="0" y="50.3" width="1073.6" height="24.65"/>
            </clipPath>
<clipPath id="terminal-line-3">
    <rect x="0" y="74.7" width="1073.6" height="24.65"/>
            </clipPath>
<clipPath id="terminal-line-4">
    <rect x="0" y="99.1" width="1073.6" height="24.65"/>
            </clipPath>
<clipPath id="terminal-line-5">
    <rect x="0" y="123.5" width="1073.6" height="24.65"/>
            </clipPath>
<clipPath id="terminal-line-6">
    <rect x="0" y="147.9" width="1073.6" height="24.65"/>
            </clipPath>
<clipPath id="terminal-line-7">
    <rect x="0" y="172.3" width="1073.6" height="24.65"/>
            </clipPath>
<clipPath id="terminal-line-8">
    <rect x="0" y="196.7" width="1073.6" height="24.65"/>
            </clipPath>
<clipPath id="terminal-line-9">
    <rect x="0" y="221.1" width="1073.6" height="24.65"/>
            </clipPath>
<clipPath id="terminal-line-10">
    <rect x="0" y="245.5" width="1073.6" height="24.65"/>
            </clipPath>
<clipPath id="terminal-line-11">
    <rect x="0" y="269.9" width="1073.6" height="24.65"/>
            </clipPath>
<clipPath id="terminal-line-12">
    <rect x="0" y="294.3" width="1073.6" height="24.65"/>
            </clipPath>
<clipPath id="terminal-line-13">
    <rect x="0" y="318.7" width="1073.6" height="24.65"/>
            </clipPath>
<clipPath id="terminal-line-14">
    <rect x="0" y="343.1" width="1073.6" height="24.65"/>
            </clipPath>
<clipPath id="terminal-line-15">
    <rect x="0" y="367.5" width="1073.6" height="24.65"/>
            </clipPath>
<clipPath id="terminal-line-16">
    <rect x="0" y="391.9" width="1073.6" height="24.65"/>
            </clipPath>
<clipPath id="terminal-line-17">
    <rect x="0" y="416.3" width="1073.6" height="24.65"/>
            </clipPath>
<clipPath id="terminal-line-18">
    <rect x="0" y="440.7" width="1073.6" height="24.65"/>
            </clipPath>
<clipPath id="terminal-line-19">
    <rect x="0" y="465.1" width="1073.6" height="24.65"/>
            </clipPath>
<clipPath id="terminal-line-20">
    <rect x="0" y="489.5" width="1073.6" height="24.65"/>
            </clipPath>
<clipPath id="terminal-line-21">
    <rect x="0" y="513.9" width="1073.6" height="24.65"/>
            </clipPath>
<clipPath id="terminal-line-22">
    <rect x="0" y="538.3" width="1073.6" height="24.65"/>
            </clipPath>
<clipPath id="terminal-line-23">
    <rect x="0" y="562.7" width="1073.6" height="24.65"/>
            </clipPath>
<clipPath id="terminal-line-24">
    <rect x="0" y="587.1" width="1073.6" height="24.65"/>
            </clipPath>
<clipPath id="terminal-line-25">
    <rect x="0" y="611.5" width="1073.6" height="24.65"/>
            </clipPath>
<clipPath id="terminal-line-26">
    <rect x="0" y="635.9" width="1073.6" height="24.65"/>
            </clipPath>
<clipPath id="terminal-line-27">
    <rect x="0" y="660.3" width="1073.6" height="24.65"/>
            </clipPath>
<clipPath id="terminal-line-28">
    <rect x="0" y="684.7" width="1073.6" height="24.65"/>
            </clipPath>
<clipPath id="terminal-line-29">
    <rect x="0" y="709.1" width="1073.6" height="24.65"/>
            </clipPath>
<clipPath id="terminal-line-30">
    <rect x="0" y="733.5" width="1073.6" height="24.65"/>
            </clipPath>
<clipPath id="terminal-line-31">
    <rect x="0" y="757.9" width="1073.6" height="24.65"/>
            </clipPath>
<clipPath id="terminal-line-32">
    <rect x="0" y="782.3" width="1073.6" height="24.65"/>
            </clipPath>
    </defs>

    <rect fill="#292929" stroke="rgba(255,255,255,0.35)" stroke-width="1" x="1" y="1" width="1090" height="877.6" rx="8"/><text class="terminal-title" fill="#c5c8c6" text-anchor="middle" x="545" y="27">KYOTA&#160;Dashboard</text>
            <g transform="translate(26,22)">
            <circle cx="0" cy="0" r="7" fill="#ff5f57"/>
            <circle cx="22" cy="0" r="7" fill="#febc2e"/>
            <circle cx="44" cy="0" r="7" fill="#28c840"/>
            </g>
        
    <g transform="translate(9, 41)" clip-path="url(#terminal-clip-terminal)">
    <rect fill="#2d2d2d" x="0" y="1.5" width="12.2" height="24.65" shape-rendering="crispEdges"/><rect fill="#2d2d2d" x="12.2" y="1.5" width="12.2" height="24.65" shape-rendering="crispEdges"/><rect fill="#2d2d2d" x="24.4" y="1.5" width="61" height="24.65" shape-rendering="crispEdges"/><rect fill="#2d2d2d" x="85.4" y="1.5" width="12.2" height="24.65" shape-rendering="crispEdges"/><rect fill="#2d2d2d" x="97.6" y="1.5" width="183" height="24.65" shape-rendering="crispEdges"/><rect fill="#2d2d2d" x="280.6" y="1.5" width="36.6" height="24.65" shape-rendering="crispEdges"/><rect fill="#2d2d2d" x="317.2" y="1.5" width="634.4" height="24.65" shape-rendering="crispEdges"/><rect fill="#2d2d2d" x="951.6" y="1.5" width="12.2" height="24.65" shape-rendering="crispEdges"/><rect fill="#2d2d2d" x="963.8" y="1.5" width="0" height="24.65" shape-rendering="crispEdges"/><rect fill="#2d2d2d" x="963.8" y="1.5" width="109.8" height="24.65" shape-rendering="crispEdges"/><rect fill="#121212" x="0" y="25.9" width="12.2" height="24.65" shape-rendering="crispEdges"/><rect fill="#1b1b1b" x="12.2" y="25.9" width="12.2" height="24.65" shape-rendering="crispEdges"/><rect fill="#1b1b1b" x="24.4" y="25.9" width="902.8" height="24.65" shape-rendering="crispEdges"/><rect fill="#1b1b1b" x="927.2" y="25.9" width="134.2" height="24.65" shape-rendering="crispEdges"/><rect fill="#121212" x="1061.4" y="25.9" width="12.2" height="24.65" shape-rendering="crispEdges"/><rect fill="#121212" x="0" y="50.3" width="12.2" height="24.65" shape-rendering="crispEdges"/><rect fill="#191919" x="12.2" y="50.3" width="12.2" height="24.65" shape-rendering="crispEdges"/><rect fill="#1e1e1e" x="24.4" y="50.3" width="1024.8" height="24.65" shape-rendering="crispEdges"/><rect fill="#121212" x="1049.2" y="50.3" width="12.2" height="24.65" shape-rendering="crispEdges"/><rect fill="#121212" x="1061.4" y="50.3" width="12.2" height="24.65" shape-rendering="crispEdges"/><rect fill="#121212" x="0" y="74.7" width="12.2" height="24.65" shape-rendering="crispEdges"/><rect fill="#191919" x="12.2" y="74.7" width="12.2" height="24.65" shape-rendering="crispEdges"/><rect fill="#1e1e1e" x="24.4" y="74.7" width="24.4" height="24.65" shape-rendering="crispEdges"/><rect fill="#1e1e1e" x="48.8" y="74.7" width="341.6" height="24.65" shape-rendering="crispEdges"/><rect fill="#1e1e1e" x="390.4" y="74.7" width="634.4" height="24.65" shape-rendering="crispEdges"/><rect fill="#1e1e1e" x="1024.8" y="74.7" width="24.4" height="24.65" shape-rendering="crispEdges"/><rect fill="#121212" x="1049.2" y="74.7" width="12.2" height="24.65" shape-rendering="crispEdges"/><rect fill="#121212" x="1061.4" y="74.7" width="12.2" height="24.65" shape-rendering="crispEdges"/><rect fill="#121212" x="0" y="99.1" width="12.2" height="24.65" shape-rendering="crispEdges"/><rect fill="#191919" x="12.2" y="99.1" width="12.2" height="24.65" shape-rendering="crispEdges"/><rect fill="#1e1e1e" x="24.4" y="99.1" width="1024.8" height="24.65" shape-rendering="crispEdges"/><rect fill="#121212" x="1049.2" y="99.1" width="12.2" height="24.65" shape-rendering="crispEdges"/><rect fill="#121212" x="1061.4" y="99.1" width="12.2" height="24.65" shape-rendering="crispEdges"/><rect fill="#121212" x="0" y="123.5" width="12.2" height="24.65" shape-rendering="crispEdges"/><rect fill="#1e1e1e" x="12.2" y="123.5" width="1024.8" height="24.65" shape-rendering="crispEdges"/><rect fill="#121212" x="1037" y="123.5" width="36.6" height="24.65" shape-rendering="crispEdges"/><rect fill="#121212" x="0" y="147.9" width="12.2" height="24.65" shape-rendering="crispEdges"/><rect fill="#1e1e1e" x="12.2" y="147.9" width="12.2" height="24.65" shape-rendering="crispEdges"/><rect fill="#1e1e1e" x="24.4" y="147.9" width="1000.4" height="24.65" shape-rendering="crispEdges"/><rect fill="#1e1e1e" x="1024.8" y="147.9" width="12.2" height="24.65" shape-rendering="crispEdges"/><rect fill="#121212" x="1037" y="147.9" width="36.6" height="24.65" shape-rendering="crispEdges"/><rect fill="#121212" x="0" y="172.3" width="12.2" height="24.65" shape-rendering="crispEdges"/><rect fill="#1e1e1e" x="12.2" y="172.3" width="12.2" height="24.65" shape-rendering="crispEdges"/><rect fill="#1e1e1e" x="24.4" y="172.3" width="24.4" height="24.65" shape-rendering="crispEdges"/><rect fill="#1e1e1e" x="48.8" y="172.3" width="244" height="24.65" shape-rendering="crispEdges"/><rect fill="#1e1e1e" x="292.8" y="172.3" width="732" height="24.65" shape-rendering="crispEdges"/><rect fill="#1e1e1e" x="1024.8" y="172.3" width="12.2" height="24.65" shape-rendering="crispEdges"/><rect fill="#121212" x="1037" y="172.3" width="36.6" height="24.65" shape-rendering="crispEdges"/><rect fill="#121212" x="0" y="196.7" width="12.2" height="24.65" shape-rendering="crispEdges"/><rect fill="#1e1e1e" x="12.2" y="196.7" width="12.2" height="24.65" shape-rendering="crispEdges"/><rect fill="#1e1e1e" x="24.4" y="196.7" width="24.4" height="24.65" shape-rendering="crispEdges"/><rect fill="#1e1e1e" x="48.8" y="196.7" width="183" height="24.65" shape-rendering="crispEdges"/><rect fill="#1e1e1e" x="231.8" y="196.7" width="793" height="24.65" shape-rendering="crispEdges"/><rect fill="#1e1e1e" x="1024.8" y="196.7" width="12.2" height="24.65" shape-rendering="crispEdges"/><rect fill="#121212" x="1037" y="196.7" width="36.6" height="24.65" shape-rendering="crispEdges"/><rect fill="#121212" x="0" y="221.1" width="12.2" height="24.65" shape-rendering="crispEdges"/><rect fill="#1e1e1e" x="12.2" y="221.1" width="12.2" height="24.65" shape-rendering="crispEdges"/><rect fill="#1e1e1e" x="24.4" y="221.1" width="24.4" height="24.65" shape-rendering="crispEdges"/><rect fill="#1e1e1e" x="48.8" y="221.1" width="146.4" height="24.65" shape-rendering="crispEdges"/><rect fill="#1e1e1e" x="195.2" y="221.1" width="829.6" height="24.65" shape-rendering="crispEdges"/><rect fill="#1e1e1e" x="1024.8" y="221.1" width="12.2" height="24.65" shape-rendering="crispEdges"/><rect fill="#121212" x="1037" y="221.1" width="36.6" height="24.65" shape-rendering="crispEdges"/><rect fill="#121212" x="0" y="245.5" width="12.2" height="24.65" shape-rendering="crispEdges"/><rect fill="#1e1e1e" x="12.2" y="245.5" width="12.2" height="24.65" shape-rendering="crispEdges"/><rect fill="#1e1e1e" x="24.4" y="245.5" width="24.4" height="24.65" shape-rendering="crispEdges"/><rect fill="#1e1e1e" x="48.8" y="245.5" width="268.4" height="24.65" shape-rendering="crispEdges"/><rect fill="#1e1e1e" x="317.2" y="245.5" width="707.6" height="24.65" shape-rendering="crispEdges"/><rect fill="#1e1e1e" x="1024.8" y="245.5" width="12.2" height="24.65" shape-rendering="crispEdges"/><rect fill="#121212" x="1037" y="245.5" width="36.6" height="24.65" shape-rendering="crispEdges"/><rect fill="#121212" x="0" y="269.9" width="12.2" height="24.65" shape-rendering="crispEdges"/><rect fill="#1e1e1e" x="12.2" y="269.9" width="12.2" height="24.65" shape-rendering="crispEdges"/><rect fill="#1e1e1e" x="24.4" y="269.9" width="24.4" height="24.65" shape-rendering="crispEdges"/><rect fill="#1e1e1e" x="48.8" y="269.9" width="329.4" height="24.65" shape-rendering="crispEdges"/><rect fill="#1e1e1e" x="378.2" y="269.9" width="646.6" height="24.65" shape-rendering="crispEdges"/><rect fill="#1e1e1e" x="1024.8" y="269.9" width="12.2" height="24.65" shape-rendering="crispEdges"/><rect fill="#121212" x="1037" y="269.9" width="36.6" height="24.65" shape-rendering="crispEdges"/><rect fill="#121212" x="0" y="294.3" width="12.2" height="24.65" shape-rendering="crispEdges"/><rect fill="#1e1e1e" x="12.2" y="294.3" width="12.2" height="24.65" shape-rendering="crispEdges"/><rect fill="#1e1e1e" x="24.4" y="294.3" width="24.4" height="24.65" shape-rendering="crispEdges"/><rect fill="#1e1e1e" x="48.8" y="294.3" width="207.4" height="24.65" shape-rendering="crispEdges"/><rect fill="#1e1e1e" x="256.2" y="294.3" width="768.6" height="24.65" shape-rendering="crispEdges"/><rect fill="#1e1e1e" x="1024.8" y="294.3" width="12.2" height="24.65" shape-rendering="crispEdges"/><rect fill="#121212" x="1037" y="294.3" width="36.6" height="24.65" shape-rendering="crispEdges"/><rect fill="#121212" x="0" y="318.7" width="12.2" height="24.65" shape-rendering="crispEdges"/><rect fill="#1e1e1e" x="12.2" y="318.7" width="12.2" height="24.65" shape-rendering="crispEdges"/><rect fill="#1e1e1e" x="24.4" y="318.7" width="24.4" height="24.65" shape-rendering="crispEdges"/><rect fill="#1e1e1e" x="48.8" y="318.7" width="268.4" height="24.65" shape-rendering="crispEdges"/><rect fill="#1e1e1e" x="317.2" y="318.7" width="707.6" height="24.65" shape-rendering="crispEdges"/><rect fill="#1e1e1e" x="1024.8" y="318.7" width="12.2" height="24.65" shape-rendering="crispEdges"/><rect fill="#121212" x="1037" y="318.7" width="36.6" height="24.65" shape-rendering="crispEdges"/><rect fill="#121212" x="0" y="343.1" width="12.2" height="24.65" shape-rendering="crispEdges"/><rect fill="#1e1e1e" x="12.2" y="343.1" width="12.2" height="24.65" shape-rendering="crispEdges"/><rect fill="#1e1e1e" x="24.4" y="343.1" width="24.4" height="24.65" shape-rendering="crispEdges"/><rect fill="#1e1e1e" x="48.8" y="343.1" width="195.2" height="24.65" shape-rendering="crispEdges"/><rect fill="#1e1e1e" x="244" y="343.1" width="780.8" height="24.65" shape-rendering="crispEdges"/><rect fill="#1e1e1e" x="1024.8" y="343.1" width="12.2" height="24.65" shape-rendering="crispEdges"/><rect fill="#121212" x="1037" y="343.1" width="36.6" height="24.65" shape-rendering="crispEdges"/><rect fill="#121212" x="0" y="367.5" width="12.2" height="24.65" shape-rendering="crispEdges"/><rect fill="#1e1e1e" x="12.2" y="367.5" width="12.2" height="24.65" shape-rendering="crispEdges"/><rect fill="#1e1e1e" x="24.4" y="367.5" width="24.4" height="24.65" shape-rendering="crispEdges"/><rect fill="#1e1e1e" x="48.8" y="367.5" width="268.4" height="24.65" shape-rendering="crispEdges"/><rect fill="#1e1e1e" x="317.2" y="367.5" width="707.6" height="24.65" shape-rendering="crispEdges"/><rect fill="#1e1e1e" x="1024.8" y="367.5" width="12.2" height="24.65" shape-rendering="crispEdges"/><rect fill="#121212" x="1037" y="367.5" width="36.6" height="24.65" shape-rendering="crispEdges"/><rect fill="#121212" x="0" y="391.9" width="12.2" height="24.65" shape-rendering="crispEdges"/><rect fill="#1e1e1e" x="12.2" y="391.9" width="12.2" height="24.65" shape-rendering="crispEdges"/><rect fill="#1e1e1e" x="24.4" y="391.9" width="24.4" height="24.65" shape-rendering="crispEdges"/><rect fill="#1e1e1e" x="48.8" y="391.9" width="0" height="24.65" shape-rendering="crispEdges"/><rect fill="#1e1e1e" x="48.8" y="391.9" width="976" height="24.65" shape-rendering="crispEdges"/><rect fill="#1e1e1e" x="1024.8" y="391.9" width="12.2" height="24.65" shape-rendering="crispEdges"/><rect fill="#121212" x="1037" y="391.9" width="36.6" height="24.65" shape-rendering="crispEdges"/><rect fill="#121212" x="0" y="416.3" width="12.2" height="24.65" shape-rendering="crispEdges"/><rect fill="#1e1e1e" x="12.2" y="416.3" width="12.2" height="24.65" shape-rendering="crispEdges"/><rect fill="#1e1e1e" x="24.4" y="416.3" width="24.4" height="24.65" shape-rendering="crispEdges"/><rect fill="#1e1e1e" x="48.8" y="416.3" width="146.4" height="24.65" shape-rendering="crispEdges"/><rect fill="#1e1e1e" x="195.2" y="416.3" width="829.6" height="24.65" shape-rendering="crispEdges"/><rect fill="#1e1e1e" x="1024.8" y="416.3" width="12.2" height="24.65" shape-rendering="crispEdges"/><rect fill="#121212" x="1037" y="416.3" width="36.6" height="24.65" shape-rendering="crispEdges"/><rect fill="#121212" x="0" y="440.7" width="12.2" height="24.65" shape-rendering="crispEdges"/><rect fill="#1e1e1e" x="12.2" y="440.7" width="12.2" height="24.65" shape-rendering="crispEdges"/><rect fill="#1e1e1e" x="24.4" y="440.7" width="24.4" height="24.65" shape-rendering="crispEdges"/><rect fill="#1e1e1e" x="48.8" y="440.7" width="671" height="24.65" shape-rendering="crispEdges"/><rect fill="#1e1e1e" x="719.8" y="440.7" width="305" height="24.65" shape-rendering="crispEdges"/><rect fill="#1e1e1e" x="1024.8" y="440.7" width="12.2" height="24.65" shape-rendering="crispEdges"/><rect fill="#121212" x="1037" y="440.7" width="36.6" height="24.65" shape-rendering="crispEdges"/><rect fill="#121212" x="0" y="465.1" width="12.2" height="24.65" shape-rendering="crispEdges"/><rect fill="#1e1e1e" x="12.2" y="465.1" width="12.2" height="24.65" shape-rendering="crispEdges"/><rect fill="#1e1e1e" x="24.4" y="465.1" width="24.4" height="24.65" shape-rendering="crispEdges"/><rect fill="#1e1e1e" x="48.8" y="465.1" width="378.2" height="24.65" shape-rendering="crispEdges"/><rect fill="#1e1e1e" x="427" y="465.1" width="597.8" height="24.65" shape-rendering="crispEdges"/><rect fill="#1e1e1e" x="1024.8" y="465.1" width="12.2" height="24.65" shape-rendering="crispEdges"/><rect fill="#121212" x="1037" y="465.1" width="36.6" height="24.65" shape-rendering="crispEdges"/><rect fill="#121212" x="0" y="489.5" width="12.2" height="24.65" shape-rendering="crispEdges"/><rect fill="#1e1e1e" x="12.2" y="489.5" width="12.2" height="24.65" shape-rendering="crispEdges"/><rect fill="#1e1e1e" x="24.4" y="489.5" width="24.4" height="24.65" shape-rendering="crispEdges"/><rect fill="#1e1e1e" x="48.8" y="489.5" width="378.2" height="24.65" shape-rendering="crispEdges"/><rect fill="#1e1e1e" x="427" y="489.5" width="597.8" height="24.65" shape-rendering="crispEdges"/><rect fill="#1e1e1e" x="1024.8" y="489.5" width="12.2" height="24.65" shape-rendering="crispEdges"/><rect fill="#121212" x="1037" y="489.5" width="36.6" height="24.65" shape-rendering="crispEdges"/><rect fill="#121212" x="0" y="513.9" width="12.2" height="24.65" shape-rendering="crispEdges"/><rect fill="#1e1e1e" x="12.2" y="513.9" width="12.2" height="24.65" shape-rendering="crispEdges"/><rect fill="#1e1e1e" x="24.4" y="513.9" width="24.4" height="24.65" shape-rendering="crispEdges"/><rect fill="#1e1e1e" x="48.8" y="513.9" width="0" height="24.65" shape-rendering="crispEdges"/><rect fill="#1e1e1e" x="48.8" y="513.9" width="976" height="24.65" shape-rendering="crispEdges"/><rect fill="#1e1e1e" x="1024.8" y="513.9" width="12.2" height="24.65" shape-rendering="crispEdges"/><rect fill="#121212" x="1037" y="513.9" width="36.6" height="24.65" shape-rendering="crispEdges"/><rect fill="#121212" x="0" y="538.3" width="12.2" height="24.65" shape-rendering="crispEdges"/><rect fill="#1e1e1e" x="12.2" y="538.3" width="12.2" height="24.65" shape-rendering="crispEdges"/><rect fill="#1e1e1e" x="24.4" y="538.3" width="24.4" height="24.65" shape-rendering="crispEdges"/><rect fill="#1e1e1e" x="48.8" y="538.3" width="939.4" height="24.65" shape-rendering="crispEdges"/><rect fill="#1e1e1e" x="988.2" y="538.3" width="36.6" height="24.65" shape-rendering="crispEdges"/><rect fill="#1e1e1e" x="1024.8" y="538.3" width="12.2" height="24.65" shape-rendering="crispEdges"/><rect fill="#121212" x="1037" y="538.3" width="36.6" height="24.65" shape-rendering="crispEdges"/><rect fill="#121212" x="0" y="562.7" width="12.2" height="24.65" shape-rendering="crispEdges"/><rect fill="#1e1e1e" x="12.2" y="562.7" width="12.2" height="24.65" shape-rendering="crispEdges"/><rect fill="#1e1e1e" x="24.4" y="562.7" width="24.4" height="24.65" shape-rendering="crispEdges"/><rect fill="#1e1e1e" x="48.8" y="562.7" width="305" height="24.65" shape-rendering="crispEdges"/><rect fill="#1e1e1e" x="353.8" y="562.7" width="671" height="24.65" shape-rendering="crispEdges"/><rect fill="#1e1e1e" x="1024.8" y="562.7" width="12.2" height="24.65" shape-rendering="crispEdges"/><rect fill="#121212" x="1037" y="562.7" width="36.6" height="24.65" shape-rendering="crispEdges"/><rect fill="#121212" x="0" y="587.1" width="12.2" height="24.65" shape-rendering="crispEdges"/><rect fill="#1e1e1e" x="12.2" y="587.1" width="12.2" height="24.65" shape-rendering="crispEdges"/><rect fill="#1e1e1e" x="24.4" y="587.1" width="1000.4" height="24.65" shape-rendering="crispEdges"/><rect fill="#1e1e1e" x="1024.8" y="587.1" width="12.2" height="24.65" shape-rendering="crispEdges"/><rect fill="#121212" x="1037" y="587.1" width="36.6" height="24.65" shape-rendering="crispEdges"/><rect fill="#121212" x="0" y="611.5" width="12.2" height="24.65" shape-rendering="crispEdges"/><rect fill="#1e1e1e" x="12.2" y="611.5" width="1024.8" height="24.65" shape-rendering="crispEdges"/><rect fill="#121212" x="1037" y="611.5" width="36.6" height="24.65" shape-rendering="crispEdges"/><rect fill="#121212" x="0" y="635.9" width="1073.6" height="24.65" shape-rendering="crispEdges"/><rect fill="#121212" x="0" y="660.3" width="12.2" height="24.65" shape-rendering="crispEdges"/><rect fill="#1e1e1e" x="12.2" y="660.3" width="1024.8" height="24.65" shape-rendering="crispEdges"/><rect fill="#121212" x="1037" y="660.3" width="36.6" height="24.65" shape-rendering="crispEdges"/><rect fill="#121212" x="0" y="684.7" width="12.2" height="24.65" shape-rendering="crispEdges"/><rect fill="#1e1e1e" x="12.2" y="684.7" width="1024.8" height="24.65" shape-rendering="crispEdges"/><rect fill="#121212" x="1037" y="684.7" width="36.6" height="24.65" shape-rendering="crispEdges"/><rect fill="#121212" x="0" y="709.1" width="12.2" height="24.65" shape-rendering="crispEdges"/><rect fill="#1e1e1e" x="12.2" y="709.1" width="1024.8" height="24.65" shape-rendering="crispEdges"/><rect fill="#121212" x="1037" y="709.1" width="36.6" height="24.65" shape-rendering="crispEdges"/><rect fill="#121212" x="0" y="733.5" width="12.2" height="24.65" shape-rendering="crispEdges"/><rect fill="#1e1e1e" x="12.2" y="733.5" width="1024.8" height="24.65" shape-rendering="crispEdges"/><rect fill="#121212" x="1037" y="733.5" width="36.6" height="24.65" shape-rendering="crispEdges"/><rect fill="#121212" x="0" y="757.9" width="1073.6" height="24.65" shape-rendering="crispEdges"/><rect fill="#121212" x="0" y="782.3" width="1073.6" height="24.65" shape-rendering="crispEdges"/><rect fill="#2d2d2d" x="0" y="806.7" width="36.6" height="24.65" shape-rendering="crispEdges"/><rect fill="#2d2d2d" x="36.6" y="806.7" width="61" height="24.65" shape-rendering="crispEdges"/><rect fill="#2d2d2d" x="97.6" y="806.7" width="36.6" height="24.65" shape-rendering="crispEdges"/><rect fill="#2d2d2d" x="134.2" y="806.7" width="97.6" height="24.65" shape-rendering="crispEdges"/><rect fill="#2d2d2d" x="231.8" y="806.7" width="36.6" height="24.65" shape-rendering="crispEdges"/><rect fill="#2d2d2d" x="268.4" y="806.7" width="85.4" height="24.65" shape-rendering="crispEdges"/><rect fill="#2d2d2d" x="353.8" y="806.7" width="36.6" height="24.65" shape-rendering="crispEdges"/><rect fill="#2d2d2d" x="390.4" y="806.7" width="73.2" height="24.65" shape-rendering="crispEdges"/><rect fill="#2d2d2d" x="463.6" y="806.7" width="36.6" height="24.65" shape-rendering="crispEdges"/><rect fill="#2d2d2d" x="500.2" y="806.7" width="85.4" height="24.65" shape-rendering="crispEdges"/><rect fill="#2d2d2d" x="585.6" y="806.7" width="36.6" height="24.65" shape-rendering="crispEdges"/><rect fill="#2d2d2d" x="622.2" y="806.7" width="97.6" height="24.65" shape-rendering="crispEdges"/><rect fill="#2d2d2d" x="719.8" y="806.7" width="36.6" height="24.65" shape-rendering="crispEdges"/><rect fill="#2d2d2d" x="756.4" y="806.7" width="73.2" height="24.65" shape-rendering="crispEdges"/><rect fill="#2d2d2d" x="829.6" y="806.7" width="36.6" height="24.65" shape-rendering="crispEdges"/><rect fill="#2d2d2d" x="866.2" y="806.7" width="61" height="24.65" shape-rendering="crispEdges"/><rect fill="#2d2d2d" x="927.2" y="806.7" width="12.2" height="24.65" shape-rendering="crispEdges"/><rect fill="#2d2d2d" x="939.4" y="806.7" width="24.4" height="24.65" shape-rendering="crispEdges"/><rect fill="#2d2d2d" x="963.8" y="806.7" width="97.6" height="24.65" shape-rendering="crispEdges"/><rect fill="#2d2d2d" x="1061.4" y="806.7" width="12.2" height="24.65" shape-rendering="crispEdges"/>
    <g class="terminal-matrix">
    <text class="terminal-r2" x="12.2" y="20" textLength="12.2" clip-path="url(#terminal-line-0)">⭘</text><text class="terminal-r2" x="97.6" y="20" textLength="183" clip-path="url(#terminal-line-0)">KYOTA&#160;Dashboard</text><text class="terminal-r3" x="280.6" y="20" textLength="36.6" clip-path="url(#terminal-line-0)">&#160;—&#160;</text><text class="terminal-r3" x="317.2" y="20" textLength="634.4" clip-path="url(#terminal-line-0)">Writable&#160;coordination&#160;console&#160;for&#160;workspace&#160;operati…</text><text class="terminal-r1" x="1073.6" y="20" textLength="12.2" clip-path="url(#terminal-line-0)">
</text><text class="terminal-r4" x="24.4" y="44.4" textLength="902.8" clip-path="url(#terminal-line-1)">Workspace:&#160;workspace&#160;|&#160;Agent:&#160;codex&#160;|&#160;writes&#160;enabled&#160;|&#160;manual&#160;refresh&#160;only</text><text class="terminal-r1" x="1073.6" y="44.4" textLength="12.2" clip-path="url(#terminal-line-1)">
</text><text class="terminal-r5" x="12.2" y="68.8" textLength="12.2" clip-path="url(#terminal-line-2)">▊</text><text class="terminal-r6" x="24.4" y="68.8" textLength="1024.8" clip-path="url(#terminal-line-2)">▔▔▔▔▔▔▔▔▔▔▔▔▔▔▔▔▔▔▔▔▔▔▔▔▔▔▔▔▔▔▔▔▔▔▔▔▔▔▔▔▔▔▔▔▔▔▔▔▔▔▔▔▔▔▔▔▔▔▔▔▔▔▔▔▔▔▔▔▔▔▔▔▔▔▔▔▔▔▔▔▔▔▔▔</text><text class="terminal-r6" x="1049.2" y="68.8" textLength="12.2" clip-path="url(#terminal-line-2)">▎</text><text class="terminal-r1" x="1073.6" y="68.8" textLength="12.2" clip-path="url(#terminal-line-2)">
</text><text class="terminal-r5" x="12.2" y="93.2" textLength="12.2" clip-path="url(#terminal-line-3)">▊</text><text class="terminal-r7" x="48.8" y="93.2" textLength="341.6" clip-path="url(#terminal-line-3)">Filter&#160;the&#160;current&#160;table&#160;(/)</text><text class="terminal-r6" x="1049.2" y="93.2" textLength="12.2" clip-path="url(#terminal-line-3)">▎</text><text class="terminal-r1" x="1073.6" y="93.2" textLength="12.2" clip-path="url(#terminal-line-3)">
</text><text class="terminal-r5" x="12.2" y="117.6" textLength="12.2" clip-path="url(#terminal-line-4)">▊</text><text class="terminal-r6" x="24.4" y="117.6" textLength="1024.8" clip-path="url(#terminal-line-4)">▁▁▁▁▁▁▁▁▁▁▁▁▁▁▁▁▁▁▁▁▁▁▁▁▁▁▁▁▁▁▁▁▁▁▁▁▁▁▁▁▁▁▁▁▁▁▁▁▁▁▁▁▁▁▁▁▁▁▁▁▁▁▁▁▁▁▁▁▁▁▁▁▁▁▁▁▁▁▁▁▁▁▁▁</text><text class="terminal-r6" x="1049.2" y="117.6" textLength="12.2" clip-path="url(#terminal-line-4)">▎</text><text class="terminal-r1" x="1073.6" y="117.6" textLength="12.2" clip-path="url(#terminal-line-4)">
</text><text class="terminal-r8" x="12.2" y="142" textLength="1024.8" clip-path="url(#terminal-line-5)">╭──────────────────────────────────────────────────────────────────────────────────╮</text><text class="terminal-r1" x="1073.6" y="142" textLength="12.2" clip-path="url(#terminal-line-5)">
</text><text class="terminal-r8" x="12.2" y="166.4" textLength="12.2" clip-path="url(#terminal-line-6)">│</text><text class="terminal-r8" x="1024.8" y="166.4" textLength="12.2" clip-path="url(#terminal-line-6)">│</text><text class="terminal-r1" x="1073.6" y="166.4" textLength="12.2" clip-path="url(#terminal-line-6)">
</text><text class="terminal-r8" x="12.2" y="190.8" textLength="12.2" clip-path="url(#terminal-line-7)">│</text><text class="terminal-r4" x="48.8" y="190.8" textLength="244" clip-path="url(#terminal-line-7)">Workspace:&#160;workspace</text><text class="terminal-r8" x="1024.8" y="190.8" textLength="12.2" clip-path="url(#terminal-line-7)">│</text><text class="terminal-r1" x="1073.6" y="190.8" textLength="12.2" clip-path="url(#terminal-line-7)">
</text><text class="terminal-r8" x="12.2" y="215.2" textLength="12.2" clip-path="url(#terminal-line-8)">│</text><text class="terminal-r4" x="48.8" y="215.2" textLength="183" clip-path="url(#terminal-line-8)">Health:&#160;Healthy</text><text class="terminal-r8" x="1024.8" y="215.2" textLength="12.2" clip-path="url(#terminal-line-8)">│</text><text class="terminal-r1" x="1073.6" y="215.2" textLength="12.2" clip-path="url(#terminal-line-8)">
</text><text class="terminal-r8" x="12.2" y="239.6" textLength="12.2" clip-path="url(#terminal-line-9)">│</text><text class="terminal-r4" x="48.8" y="239.6" textLength="146.4" clip-path="url(#terminal-line-9)">Agent:&#160;codex</text><text class="terminal-r8" x="1024.8" y="239.6" textLength="12.2" clip-path="url(#terminal-line-9)">│</text><text class="terminal-r1" x="1073.6" y="239.6" textLength="12.2" clip-path="url(#terminal-line-9)">
</text><text class="terminal-r8" x="12.2" y="264" textLength="12.2" clip-path="url(#terminal-line-10)">│</text><text class="terminal-r4" x="48.8" y="264" textLength="268.4" clip-path="url(#terminal-line-10)">Write&#160;actions:&#160;enabled</text><text class="terminal-r8" x="1024.8" y="264" textLength="12.2" clip-path="url(#terminal-line-10)">│</text><text class="terminal-r1" x="1073.6" y="264" textLength="12.2" clip-path="url(#terminal-line-10)">
</text><text class="terminal-r8" x="12.2" y="288.4" textLength="12.2" clip-path="url(#terminal-line-11)">│</text><text class="terminal-r4" x="48.8" y="288.4" textLength="329.4" clip-path="url(#terminal-line-11)">Required&#160;files&#160;present:&#160;yes</text><text class="terminal-r8" x="1024.8" y="288.4" textLength="12.2" clip-path="url(#terminal-line-11)">│</text><text class="terminal-r1" x="1073.6" y="288.4" textLength="12.2" clip-path="url(#terminal-line-11)">
</text><text class="terminal-r8" x="12.2" y="312.8" textLength="12.2" clip-path="url(#terminal-line-12)">│</text><text class="terminal-r4" x="48.8" y="312.8" textLength="207.4" clip-path="url(#terminal-line-12)">Log&#160;readable:&#160;yes</text><text class="terminal-r8" x="1024.8" y="312.8" textLength="12.2" clip-path="url(#terminal-line-12)">│</text><text class="terminal-r1" x="1073.6" y="312.8" textLength="12.2" clip-path="url(#terminal-line-12)">
</text><text class="terminal-r8" x="12.2" y="337.2" textLength="12.2" clip-path="url(#terminal-line-13)">│</text><text class="terminal-r4" x="48.8" y="337.2" textLength="268.4" clip-path="url(#terminal-line-13)">Routers&#160;in&#160;parity:&#160;yes</text><text class="terminal-r8" x="1024.8" y="337.2" textLength="12.2" clip-path="url(#terminal-line-13)">│</text><text class="terminal-r1" x="1073.6" y="337.2" textLength="12.2" clip-path="url(#terminal-line-13)">
</text><text class="terminal-r8" x="12.2" y="361.6" textLength="12.2" clip-path="url(#terminal-line-14)">│</text><text class="terminal-r4" x="48.8" y="361.6" textLength="195.2" clip-path="url(#terminal-line-14)">Active&#160;claims:&#160;0</text><text class="terminal-r8" x="1024.8" y="361.6" textLength="12.2" clip-path="url(#terminal-line-14)">│</text><text class="terminal-r1" x="1073.6" y="361.6" textLength="12.2" clip-path="url(#terminal-line-14)">
</text><text class="terminal-r8" x="12.2" y="386" textLength="12.2" clip-path="url(#terminal-line-15)">│</text><text class="terminal-r4" x="48.8" y="386" textLength="268.4" clip-path="url(#terminal-line-15)">Unresolved&#160;blockers:&#160;0</text><text class="terminal-r8" x="1024.8" y="386" textLength="12.2" clip-path="url(#terminal-line-15)">│</text><text class="terminal-r1" x="1073.6" y="386" textLength="12.2" clip-path="url(#terminal-line-15)">
</text><text class="terminal-r8" x="12.2" y="410.4" textLength="12.2" clip-path="url(#terminal-line-16)">│</text><text class="terminal-r8" x="1024.8" y="410.4" textLength="12.2" clip-path="url(#terminal-line-16)">│</text><text class="terminal-r1" x="1073.6" y="410.4" textLength="12.2" clip-path="url(#terminal-line-16)">
</text><text class="terminal-r8" x="12.2" y="434.8" textLength="12.2" clip-path="url(#terminal-line-17)">│</text><text class="terminal-r4" x="48.8" y="434.8" textLength="146.4" clip-path="url(#terminal-line-17)">Ready&#160;state:</text><text class="terminal-r8" x="1024.8" y="434.8" textLength="12.2" clip-path="url(#terminal-line-17)">│</text><text class="terminal-r1" x="1073.6" y="434.8" textLength="12.2" clip-path="url(#terminal-line-17)">
</text><text class="terminal-r8" x="12.2" y="459.2" textLength="12.2" clip-path="url(#terminal-line-18)">│</text><text class="terminal-r4" x="48.8" y="459.2" textLength="671" clip-path="url(#terminal-line-18)">-&#160;Workspace&#160;is&#160;healthy&#160;and&#160;ready&#160;for&#160;coordination&#160;work.</text><text class="terminal-r8" x="1024.8" y="459.2" textLength="12.2" clip-path="url(#terminal-line-18)">│</text><text class="terminal-r1" x="1073.6" y="459.2" textLength="12.2" clip-path="url(#terminal-line-18)">
</text><text class="terminal-r8" x="12.2" y="483.6" textLength="12.2" clip-path="url(#terminal-line-19)">│</text><text class="terminal-r4" x="48.8" y="483.6" textLength="378.2" clip-path="url(#terminal-line-19)">-&#160;Nothing&#160;is&#160;blocked&#160;right&#160;now.</text><text class="terminal-r8" x="1024.8" y="483.6" textLength="12.2" clip-path="url(#terminal-line-19)">│</text><text class="terminal-r1" x="1073.6" y="483.6" textLength="12.2" clip-path="url(#terminal-line-19)">
</text><text class="terminal-r8" x="12.2" y="508" textLength="12.2" clip-path="url(#terminal-line-20)">│</text><text class="terminal-r4" x="48.8" y="508" textLength="378.2" clip-path="url(#terminal-line-20)">-&#160;No&#160;files&#160;are&#160;currently&#160;owned.</text><text class="terminal-r8" x="1024.8" y="508" textLength="12.2" clip-path="url(#terminal-line-20)">│</text><text class="terminal-r1" x="1073.6" y="508" textLength="12.2" clip-path="url(#terminal-line-20)">
</text><text class="terminal-r8" x="12.2" y="532.4" textLength="12.2" clip-path="url(#terminal-line-21)">│</text><text class="terminal-r8" x="1024.8" y="532.4" textLength="12.2" clip-path="url(#terminal-line-21)">│</text><text class="terminal-r1" x="1073.6" y="532.4" textLength="12.2" clip-path="url(#terminal-line-21)">
</text><text class="terminal-r8" x="12.2" y="556.8" textLength="12.2" clip-path="url(#terminal-line-22)">│</text><text class="terminal-r4" x="48.8" y="556.8" textLength="939.4" clip-path="url(#terminal-line-22)">Next&#160;step:&#160;Workspace&#160;is&#160;clear.&#160;Start&#160;with&#160;`kyota&#160;tui`&#160;or&#160;`kyota&#160;status`,&#160;then</text><text class="terminal-r8" x="1024.8" y="556.8" textLength="12.2" clip-path="url(#terminal-line-22)">│</text><text class="terminal-r1" x="1073.6" y="556.8" textLength="12.2" clip-path="url(#terminal-line-22)">
</text><text class="terminal-r8" x="12.2" y="581.2" textLength="12.2" clip-path="url(#terminal-line-23)">│</text><text class="terminal-r4" x="48.8" y="581.2" textLength="305" clip-path="url(#terminal-line-23)">claim&#160;the&#160;files&#160;you&#160;need.</text><text class="terminal-r8" x="1024.8" y="581.2" textLength="12.2" clip-path="url(#terminal-line-23)">│</text><text class="terminal-r1" x="1073.6" y="581.2" textLength="12.2" clip-path="url(#terminal-line-23)">
</text><text class="terminal-r8" x="12.2" y="605.6" textLength="12.2" clip-path="url(#terminal-line-24)">│</text><text class="terminal-r8" x="1024.8" y="605.6" textLength="12.2" clip-path="url(#terminal-line-24)">│</text><text class="terminal-r1" x="1073.6" y="605.6" textLength="12.2" clip-path="url(#terminal-line-24)">
</text><text class="terminal-r8" x="12.2" y="630" textLength="1024.8" clip-path="url(#terminal-line-25)">╰──────────────────────────────────────────────────────────────────────────────────╯</text><text class="terminal-r1" x="1073.6" y="630" textLength="12.2" clip-path="url(#terminal-line-25)">
</text><text class="terminal-r1" x="1073.6" y="654.4" textLength="12.2" clip-path="url(#terminal-line-26)">
</text><text class="terminal-r9" x="12.2" y="678.8" textLength="1024.8" clip-path="url(#terminal-line-27)">╭──────────────────────────────────────────────────────────────────────────────────╮</text><text class="terminal-r1" x="1073.6" y="678.8" textLength="12.2" clip-path="url(#terminal-line-27)">
</text><text class="terminal-r9" x="12.2" y="703.2" textLength="1024.8" clip-path="url(#terminal-line-28)">╰──────────────────────────────────────────────────────────────────────────────────╯</text><text class="terminal-r1" x="1073.6" y="703.2" textLength="12.2" clip-path="url(#terminal-line-28)">
</text><text class="terminal-r9" x="12.2" y="727.6" textLength="1024.8" clip-path="url(#terminal-line-29)">╭──────────────────────────────────────────────────────────────────────────────────╮</text><text class="terminal-r1" x="1073.6" y="727.6" textLength="12.2" clip-path="url(#terminal-line-29)">
</text><text class="terminal-r9" x="12.2" y="752" textLength="1024.8" clip-path="url(#terminal-line-30)">╰──────────────────────────────────────────────────────────────────────────────────╯</text><text class="terminal-r1" x="1073.6" y="752" textLength="12.2" clip-path="url(#terminal-line-30)">
</text><text class="terminal-r1" x="1073.6" y="776.4" textLength="12.2" clip-path="url(#terminal-line-31)">
</text><text class="terminal-r1" x="1073.6" y="800.8" textLength="12.2" clip-path="url(#terminal-line-32)">
</text><text class="terminal-r10" x="0" y="825.2" textLength="36.6" clip-path="url(#terminal-line-33)">&#160;q&#160;</text><text class="terminal-r2" x="36.6" y="825.2" textLength="61" clip-path="url(#terminal-line-33)">Quit&#160;</text><text class="terminal-r10" x="97.6" y="825.2" textLength="36.6" clip-path="url(#terminal-line-33)">&#160;r&#160;</text><text class="terminal-r2" x="134.2" y="825.2" textLength="97.6" clip-path="url(#terminal-line-33)">Refresh&#160;</text><text class="terminal-r10" x="231.8" y="825.2" textLength="36.6" clip-path="url(#terminal-line-33)">&#160;/&#160;</text><text class="terminal-r2" x="268.4" y="825.2" textLength="85.4" clip-path="url(#terminal-line-33)">Filter&#160;</text><text class="terminal-r10" x="353.8" y="825.2" textLength="36.6" clip-path="url(#terminal-line-33)">&#160;c&#160;</text><text class="terminal-r2" x="390.4" y="825.2" textLength="73.2" clip-path="url(#terminal-line-33)">Claim&#160;</text><text class="terminal-r10" x="463.6" y="825.2" textLength="36.6" clip-path="url(#terminal-line-33)">&#160;v&#160;</text><text class="terminal-r2" x="500.2" y="825.2" textLength="85.4" clip-path="url(#terminal-line-33)">Verify&#160;</text><text class="terminal-r10" x="585.6" y="825.2" textLength="36.6" clip-path="url(#terminal-line-33)">&#160;x&#160;</text><text class="terminal-r2" x="622.2" y="825.2" textLength="97.6" clip-path="url(#terminal-line-33)">Release&#160;</text><text class="terminal-r10" x="719.8" y="825.2" textLength="36.6" clip-path="url(#terminal-line-33)">&#160;b&#160;</text><text class="terminal-r2" x="756.4" y="825.2" textLength="73.2" clip-path="url(#terminal-line-33)">Block&#160;</text><text class="terminal-r10" x="829.6" y="825.2" textLength="36.6" clip-path="url(#terminal-line-33)">&#160;u&#160;</text><text class="terminal-r2" x="866.2" y="825.2" textLength="61" clip-path="url(#terminal-line-33)">Unblo</text><text class="terminal-r11" x="927.2" y="825.2" textLength="12.2" clip-path="url(#terminal-line-33)">▏</text><text class="terminal-r10" x="939.4" y="825.2" textLength="24.4" clip-path="url(#terminal-line-33)">^p</text><text class="terminal-r2" x="963.8" y="825.2" textLength="97.6" clip-path="url(#terminal-line-33)">&#160;palette</text>
    </g>
    </g>
</svg>
